#!OML:ASF X:\für Bonn\!DataBase\2005_08_10_Bjorn_Final\c3d\bjorn.ASF
:FULLY-SPECIFIED
:DEGREES
61
root 0.905402 19.6268 3.21967 -189.652 -39.443 -172.382
lowerback 15.7973 -0.179791 -8.08508
upperback 14.5678 -3.25033 -3.18785
thorax 7.13403 -3.09911 1.26374
lowerneck -6.3549 -6.74846 -3.51927
upperneck 10.0438 -10.6728 13.1638
head 4.97204 -4.83983 3.91798
rclavicle 6.36111e-015 6.20208e-014
rhumerus -43.7108 -11.5936 -86.5038
rradius 24.579
rwrist 22.9175
rhand -14.5091 16.3523
rfingers 7.12502
rthumb 11.6381 -13.3045
lclavicle 6.36111e-015 6.20208e-014
lhumerus 28.6363 -24.988 69.7679
lradius 89.7006
lwrist -6.7993
lhand -32.5148 -23.5178
lfingers 7.12502
lthumb -5.74581 6.38432
rfemur -58.5259 2.25347 14.0659
rtibia 109.359
rfoot -14.4052 12.865
rtoes -28.8428
lfemur -5.66725 -2.17088 -13.1288
ltibia 17.4635
lfoot 8.25347 -26.314
ltoes 18.6584
62
root 0.943575 19.6426 3.23331 -190.586 -40.3807 -171.297
lowerback 16.7565 -0.357058 -7.81621
upperback 14.8579 -3.62497 -2.99431
thorax 6.98692 -3.31056 1.38959
lowerneck -6.16675 -6.84561 -3.91417
upperneck 9.54025 -10.8072 13.9007
head 4.86168 -4.91685 4.20838
rclavicle -1.43125e-013 3.18055e-014
rhumerus -43.8695 -10.9887 -86.54
rradius 24.6771
rwrist 22.7935
rhand -14.4282 16.1518
rfingers 7.12502
rthumb 11.7162 -13.5006
lclavicle -1.43125e-013 3.18055e-014
lhumerus 31.0051 -24.9423 70.4237
lradius 90.6966
lwrist -6.90891
lhand -33.1383 -23.6749
lfingers 7.12502
lthumb -6.3477 6.21
rfemur -60.6022 1.91461 13.9022
rtibia 111.138
rfoot -14.0763 13.8075
rtoes -26.2816
lfemur -5.54938 -2.95982 -12.4071
ltibia 17.1406
lfoot 8.37531 -26.4145
ltoes 17.9695
63
root 0.98097 19.6576 3.24342 -191.595 -41.3238 -170.185
lowerback 17.7362 -0.536685 -7.55978
upperback 15.1659 -4.00655 -2.79092
thorax 6.85984 -3.53198 1.54007
lowerneck -6.04743 -6.92789 -4.29548
upperneck 9.10775 -10.9334 14.6384
head 4.78574 -4.98685 4.49503
rclavicle -4.77083e-015 -1.04958e-013
rhumerus -44.0286 -10.292 -86.6099
rradius 24.8064
rwrist 22.6183
rhand -14.4007 15.8616
rfingers 7.12502
rthumb 11.7427 -13.7893
lclavicle -4.77083e-015 -1.04958e-013
lhumerus 33.3735 -24.9501 71.0197
lradius 91.6201
lwrist -6.9494
lhand -33.6858 -23.6389
lfingers 7.12502
lthumb -6.87626 6.22939
rfemur -62.5902 1.38628 13.7525
rtibia 112.804
rfoot -13.8509 14.6063
rtoes -24.713
lfemur -5.41614 -3.7958 -11.6956
ltibia 16.8864
lfoot 8.33102 -26.5529
ltoes 16.9668
64
root 1.01742 19.6714 3.25076 -192.553 -42.245 -169.157
lowerback 18.6604 -0.71816 -7.40606
upperback 15.4745 -4.39455 -2.60428
thorax 6.77924 -3.76747 1.7322
lowerneck -5.90661 -6.9833 -4.70155
upperneck 8.63699 -11.0135 15.3793
head 4.69331 -5.03973 4.79223
rclavicle 4.29375e-014 3.81667e-014
rhumerus -44.1557 -9.49548 -86.7048
rradius 24.9178
rwrist 22.4122
rhand -14.4281 15.5561
rfingers 7.12502
rthumb 11.7163 -14.0963
lclavicle 4.29375e-014 3.81667e-014
lhumerus 35.6331 -24.9689 71.6053
lradius 92.4791
lwrist -6.96301
lhand -34.2093 -23.5186
lfingers 7.12502
lthumb -7.38164 6.33266
rfemur -64.603 0.685061 13.5364
rtibia 114.407
rfoot -13.7019 15.2722
rtoes -23.7078
lfemur -5.30392 -4.67187 -11.0839
ltibia 16.6504
lfoot 8.34827 -26.6204
ltoes 16.2797
65
root 1.05363 19.6832 3.2566 -193.523 -43.163 -168.174
lowerback 19.6191 -0.892257 -7.31102
upperback 15.7758 -4.78374 -2.4217
thorax 6.68741 -4.01041 1.96203
lowerneck -5.7932 -7.03157 -5.12819
upperneck 8.20158 -11.094 16.1594
head 4.62169 -5.09253 5.10463
rclavicle -4.77083e-014 1.90833e-014
rhumerus -44.3219 -8.81045 -86.7083
rradius 25.0514
rwrist 22.3331
rhand -14.4442 15.2427
rfingers 7.12502
rthumb 11.7008 -14.4105
lclavicle -4.77083e-014 1.90833e-014
lhumerus 37.8761 -25.027 72.1248
lradius 93.2507
lwrist -6.83111
lhand -34.6656 -23.28
lfingers 7.12502
lthumb -7.822 6.55526
rfemur -66.5496 -0.211518 13.298
rtibia 115.923
rfoot -13.693 15.9014
rtoes -24.0276
lfemur -5.18998 -5.58652 -10.5403
ltibia 16.451
lfoot 8.3673 -26.7377
ltoes 15.7139
66
root 1.08821 19.694 3.2622 -194.492 -44.0405 -167.214
lowerback 20.5781 -1.05763 -7.20785
upperback 16.0722 -5.1593 -2.26187
thorax 6.59484 -4.24604 2.16882
lowerneck -5.73191 -7.06637 -5.47567
upperneck 7.80794 -11.1568 16.8586
head 4.56225 -5.13519 5.37919
rclavicle -4.6118e-014 6.36111e-014
rhumerus -44.464 -8.04309 -86.7865
rradius 25.1818
rwrist 22.1183
rhand -14.446 14.8886
rfingers 7.12502
rthumb 11.699 -14.7648
lclavicle -4.6118e-014 6.36111e-014
lhumerus 40.1834 -25.1653 72.6272
lradius 93.9001
lwrist -6.63736
lhand -35.0246 -22.9972
lfingers 7.12502
lthumb -8.16849 6.82492
rfemur -68.4157 -1.17571 13.0442
rtibia 117.323
rfoot -13.735 16.5156
rtoes -24.9732
lfemur -5.08322 -6.56638 -10.0325
ltibia 16.2792
lfoot 8.47822 -26.7138
ltoes 15.6267
67
root 1.121 19.702 3.2663 -195.496 -44.8615 -166.209
lowerback 21.5178 -1.23456 -7.08066
upperback 16.3684 -5.54309 -2.10405
thorax 6.51946 -4.48551 2.36645
lowerneck -5.72972 -7.08149 -5.82777
upperneck 7.44931 -11.1998 17.5727
head 4.52389 -5.16617 5.65965
rclavicle 1.59028e-014 -6.67916e-014
rhumerus -44.5836 -7.23315 -86.8784
rradius 25.3028
rwrist 21.8395
rhand -14.5074 14.582
rfingers 7.12502
rthumb 11.6399 -15.0747
lclavicle 1.59028e-014 -6.67916e-014
lhumerus 42.516 -25.2938 73.055
lradius 94.4567
lwrist -6.33813
lhand -35.3246 -22.6615
lfingers 7.12502
lthumb -8.45802 7.14912
rfemur -70.1551 -2.20063 12.8321
rtibia 118.579
rfoot -13.8907 17.0991
rtoes -26.6602
lfemur -5.00295 -7.60211 -9.50844
ltibia 16.1504
lfoot 8.54421 -26.6062
ltoes 15.4952
68
root 1.15212 19.7078 3.26956 -196.512 -45.6274 -165.207
lowerback 22.4723 -1.39716 -6.9089
upperback 16.6461 -5.89749 -1.97028
thorax 6.41261 -4.70364 2.51999
lowerneck -5.79324 -7.11689 -6.08862
upperneck 7.16604 -11.2844 18.2317
head 4.51776 -5.21244 5.90223
rclavicle 6.36111e-015 -6.99722e-014
rhumerus -44.7178 -6.55842 -86.9423
rradius 25.3998
rwrist 21.6052
rhand -14.5635 14.3063
rfingers 7.12502
rthumb 11.5857 -15.3534
lclavicle 6.36111e-015 -6.99722e-014
lhumerus 44.7773 -25.5333 73.4173
lradius 94.9507
lwrist -5.92659
lhand -35.635 -22.4715
lfingers 7.12502
lthumb -8.75757 7.32681
rfemur -71.7876 -3.25934 12.6262
rtibia 119.71
rfoot -14.1665 17.6814
rtoes -28.7078
lfemur -4.91265 -8.66804 -9.00315
ltibia 16.0432
lfoot 8.53227 -26.4294
ltoes 15.4537
69
root 1.18174 19.7139 3.27225 -197.515 -46.3244 -164.218
lowerback 23.3938 -1.55161 -6.75391
upperback 16.9188 -6.23809 -1.84304
thorax 6.32443 -4.91716 2.67708
lowerneck -5.92799 -7.13629 -6.23031
upperneck 6.92139 -11.3496 18.7889
head 4.52144 -5.24548 6.09247
rclavicle -1.11319e-014 -8.90555e-014
rhumerus -44.811 -5.92584 -86.9725
rradius 25.4438
rwrist 21.4106
rhand -14.5962 14.0782
rfingers 7.12502
rthumb 11.5542 -15.5833
lclavicle -1.11319e-014 -8.90555e-014
lhumerus 46.9295 -25.7533 73.7035
lradius 95.4267
lwrist -5.43056
lhand -35.8879 -22.3283
lfingers 7.12502
lthumb -9.00164 7.45967
rfemur -73.3839 -4.3534 12.4349
rtibia 120.752
rfoot -14.3552 18.3162
rtoes -30.2603
lfemur -4.84597 -9.70259 -8.50792
ltibia 15.9687
lfoot 8.58939 -26.2188
ltoes 15.5999
70
root 1.20888 19.7194 3.27306 -198.544 -46.9171 -163.246
lowerback 24.3156 -1.66537 -6.60669
upperback 17.194 -6.52966 -1.71471
thorax 6.24334 -5.1103 2.83712
lowerneck -6.11915 -7.1595 -6.25592
upperneck 6.72022 -11.4247 19.2483
head 4.53747 -5.27935 6.22943
rclavicle -9.54166e-015 6.67916e-014
rhumerus -44.8606 -5.38112 -86.9683
rradius 25.4392
rwrist 21.1798
rhand -14.6339 13.9067
rfingers 7.12502
rthumb 11.5178 -15.7569
lclavicle -9.54166e-015 6.67916e-014
lhumerus 48.9794 -26.0016 73.9683
lradius 95.8188
lwrist -4.84915
lhand -36.2035 -22.3971
lfingers 7.12502
lthumb -9.30616 7.3775
rfemur -74.8918 -5.40671 12.2781
rtibia 121.704
rfoot -14.2524 19.0599
rtoes -30.5151
lfemur -4.72136 -10.6751 -8.03419
ltibia 15.9108
lfoot 8.54563 -26.0074
ltoes 15.6076
71
root 1.23456 19.7236 3.27339 -199.497 -47.4366 -162.315
lowerback 25.1573 -1.76257 -6.4555
upperback 17.4545 -6.785 -1.60412
thorax 6.18367 -5.28191 2.96826
lowerneck -6.34846 -7.17793 -6.24455
upperneck 6.5639 -11.5125 19.7296
head 4.57568 -5.31614 6.36481
rclavicle 3.97569e-014 -2.54444e-014
rhumerus -44.8968 -4.93443 -86.9327
rradius 25.4007
rwrist 21.0434
rhand -14.6517 13.787
rfingers 7.12502
rthumb 11.5007 -15.8775
lclavicle 3.97569e-014 -2.54444e-014
lhumerus 50.9427 -26.2935 74.2186
lradius 96.1945
lwrist -4.26701
lhand -36.4741 -22.4584
lfingers 7.12502
lthumb -9.56721 7.30435
rfemur -76.4249 -6.45827 12.1453
rtibia 122.57
rfoot -14.0325 19.9209
rtoes -30.2815
lfemur -4.6338 -11.6835 -7.57225
ltibia 15.8541
lfoot 8.51472 -25.6761
ltoes 15.6856
